<?xml version="1.0" standalone="no"?>
<!DOCTYPE svg PUBLIC "-//W3C//DTD SVG 20010904//EN"
 "http://www.w3.org/TR/2001/REC-SVG-20010904/DTD/svg10.dtd">
<svg version="1.0" xmlns="http://www.w3.org/2000/svg"
 width="1800.000000pt" height="1200.000000pt" viewBox="0 0 1800.000000 1200.000000"
 preserveAspectRatio="xMidYMid meet">
<g transform="translate(0.000000,1200.000000) scale(0.100000,-0.100000)"
fill="#000000" stroke="none">
<path d="M7180 8003 c-168 -19 -429 -129 -504 -212 -11 -12 -24 -21 -30 -21
-15 0 -152 -142 -203 -210 -56 -75 -107 -179 -139 -286 -25 -81 -27 -104 -28
-254 -1 -168 6 -220 44 -326 53 -146 117 -245 243 -373 104 -106 225 -182 378
-236 147 -51 192 -54 819 -55 657 -1 660 -2 721 -68 31 -32 39 -50 44 -97 9
-67 -6 -105 -62 -162 -65 -64 -43 -63 -1003 -63 -961 0 -916 3 -1011 -67 -49
-36 -243 -235 -330 -338 -18 -22 -62 -71 -97 -109 -35 -39 -70 -85 -78 -104
-16 -38 -19 -92 -5 -92 23 0 175 148 446 433 l150 158 922 -1 c610 0 924 3
928 10 3 5 16 10 28 10 47 0 187 100 187 133 0 6 6 18 13 26 41 49 51 170 22
258 -18 54 -96 153 -122 153 -7 0 -25 7 -39 16 -22 15 -90 17 -653 20 -403 2
-637 7 -655 14 -15 5 -47 10 -71 10 -25 0 -59 6 -77 14 -18 7 -58 22 -88 32
-30 9 -77 31 -105 48 -230 138 -363 313 -422 556 -31 126 -18 360 25 463 7 16
12 32 12 37 0 19 67 139 109 195 53 69 148 163 206 203 22 15 42 29 45 32 10
10 132 70 142 70 5 0 24 6 41 14 54 24 129 44 192 51 33 3 551 6 1150 5 735 0
1119 4 1180 11 89 11 144 13 151 6 3 -2 -51 -60 -118 -129 -140 -141 -203
-209 -303 -323 -38 -43 -77 -86 -85 -95 -8 -9 -28 -31 -45 -50 l-30 -35 -935
0 -935 0 -41 -22 c-62 -33 -100 -68 -129 -121 -22 -39 -27 -60 -27 -122 0 -90
22 -141 85 -196 87 -74 33 -68 737 -75 521 -4 652 -8 730 -22 213 -36 328 -93
465 -231 83 -84 130 -154 172 -256 52 -129 58 -162 57 -335 -1 -155 -12 -236
-42 -308 -7 -16 -12 -32 -12 -37 0 -16 -65 -143 -102 -200 -102 -156 -313
-312 -498 -368 -118 -36 -119 -36 -1357 -41 l-1222 -6 -23 -23 -23 -23 23 -19
c13 -11 41 -24 62 -30 25 -7 441 -10 1204 -10 1277 1 1215 -2 1396 59 126 43
312 159 384 240 29 32 84 64 101 57 11 -4 15 -23 15 -75 0 -113 15 -164 63
-212 69 -68 71 -68 383 -68 258 1 283 2 327 21 61 26 104 81 117 147 5 28 10
256 10 505 1 453 1 455 23 488 l23 33 369 5 370 5 55 36 c55 36 283 268 440
449 107 122 141 195 108 228 -9 9 -19 4 -43 -21 -18 -17 -63 -62 -101 -98 -64
-61 -241 -248 -330 -348 -21 -24 -60 -66 -85 -93 l-47 -50 -447 4 -448 3 6
-602 c4 -379 3 -603 -3 -603 -6 -1 -162 -1 -347 -1 l-338 -1 2 196 c3 210 3
210 69 338 8 14 14 37 14 50 0 13 5 29 11 35 16 16 50 300 44 363 -18 178 -46
281 -115 435 l-27 60 6 401 6 400 125 135 c69 74 166 179 215 233 50 54 116
125 149 158 32 32 75 79 95 103 l36 44 1175 5 c646 2 1213 8 1260 12 l84 7
-134 -134 c-146 -145 -280 -285 -403 -420 l-78 -85 -922 4 -922 4 0 -272 0
-272 675 2 c371 1 694 5 717 9 41 8 73 26 73 40 0 4 -21 18 -47 32 l-48 24
-607 5 c-589 5 -608 6 -622 25 -28 39 -35 188 -11 236 9 16 27 34 40 39 15 6
355 10 817 10 436 0 809 4 828 9 81 19 107 41 382 327 255 266 319 365 271
419 -37 41 -93 75 -140 85 -31 7 -453 9 -1208 8 -1301 -3 -1174 4 -1284 -79
-29 -22 -58 -38 -65 -36 -6 3 -36 25 -67 50 -30 25 -73 50 -95 56 -27 8 -384
10 -1194 9 -635 -1 -1171 -3 -1190 -5z m1963 -855 c9 -36 11 -520 3 -545 -10
-31 -38 -29 -78 5 -116 100 -249 171 -378 203 -173 43 -273 49 -859 49 l-557
0 -52 26 c-52 26 -92 78 -92 118 0 44 34 98 79 124 l46 27 890 3 c490 1 895 4
900 6 6 3 29 5 51 5 35 1 43 -2 47 -21z"/>
</g>
</svg>
