<svg xmlns="http://www.w3.org/2000/svg" width="128" height="128" viewBox="0 0 128 128">
  <rect width="128" height="128" rx="30" fill="#06B6D4"/>
  <g transform="translate(16 16) scale(4)">
    <g stroke="#FFFFFF" stroke-width="2.4" stroke-linecap="round" stroke-linejoin="round" fill="none" opacity="0.82">
      <path d="M15.6 5.4C12 3.6 8.2 5.2 8 9.6C7.9 11.5 16 12.5 16 14.4C15.8 18.8 12 20.4 8.4 18.6"/>
      <path d="M8 9.6C6.4 10.5 5.3 11.3 4.6 12.6"/>
      <path d="M16 14.4C17.6 13.5 18.7 12.7 19.4 11.4"/>
    </g>
    <g fill="#FFFFFF">
      <circle cx="15.6" cy="5.4" r="2.3"/>
      <circle cx="8" cy="9.6" r="2.5"/>
      <circle cx="16" cy="14.4" r="2.5"/>
      <circle cx="8.4" cy="18.6" r="2.3"/>
    </g>
    <g fill="#FFFFFF" opacity="0.8">
      <circle cx="4.6" cy="12.6" r="1.85"/>
      <circle cx="19.4" cy="11.4" r="1.85"/>
    </g>
  </g>
</svg>
